<?xml version="1.0" encoding="UTF-8"?>
<svg id="Layer_1" data-name="Layer 1" xmlns="http://www.w3.org/2000/svg" viewBox="0 0 25 25">
  <defs>
    <style>
      .cls-1 {
        fill: #ffd56c;
      }

      .cls-2 {
        fill: none;
        stroke: #ffd56c;
        stroke-linecap: round;
        stroke-miterlimit: 10;
        stroke-width: .14px;
      }

      .cls-3 {
        fill: #fdb808;
      }

      .cls-4 {
        fill: #1a1229;
      }
    </style>
  </defs>
  <rect class="cls-3" x=".99" y=".86" width="23.02" height="13.69"/>
  <polygon class="cls-1" points="11.7 13.38 3.14 11.09 3.14 2.68 11.7 4.97 11.7 13.38"/>
  <polygon class="cls-1" points="13.3 13.38 21.86 11.09 21.86 2.68 13.3 4.97 13.3 13.38"/>
  <polygon class="cls-4" points="11.7 12.72 3.14 10.43 3.14 2.03 11.7 4.31 11.7 12.72"/>
  <polygon class="cls-4" points="13.3 12.72 21.86 10.43 21.86 2.03 13.3 4.31 13.3 12.72"/>
  <g>
    <g>
      <line class="cls-2" x1="4.35" y1="3.67" x2="10.49" y2="5.31"/>
      <line class="cls-2" x1="4.35" y1="4.39" x2="10.49" y2="6.03"/>
      <line class="cls-2" x1="4.35" y1="5.11" x2="10.49" y2="6.75"/>
      <line class="cls-2" x1="4.35" y1="5.83" x2="10.49" y2="7.47"/>
      <line class="cls-2" x1="4.35" y1="6.55" x2="10.49" y2="8.19"/>
      <line class="cls-2" x1="4.35" y1="7.27" x2="10.49" y2="8.91"/>
      <line class="cls-2" x1="4.35" y1="7.99" x2="10.49" y2="9.63"/>
      <line class="cls-2" x1="4.35" y1="8.71" x2="10.49" y2="10.35"/>
      <line class="cls-2" x1="4.35" y1="9.43" x2="10.49" y2="11.07"/>
    </g>
    <g>
      <line class="cls-2" x1="20.65" y1="3.67" x2="14.51" y2="5.31"/>
      <line class="cls-2" x1="20.65" y1="4.39" x2="14.51" y2="6.03"/>
      <line class="cls-2" x1="20.65" y1="5.11" x2="14.51" y2="6.75"/>
      <line class="cls-2" x1="20.65" y1="5.83" x2="14.51" y2="7.47"/>
      <line class="cls-2" x1="20.65" y1="6.55" x2="14.51" y2="8.19"/>
      <line class="cls-2" x1="20.65" y1="7.27" x2="14.51" y2="8.91"/>
      <line class="cls-2" x1="20.65" y1="7.99" x2="14.51" y2="9.63"/>
      <line class="cls-2" x1="20.65" y1="8.71" x2="14.51" y2="10.35"/>
      <line class="cls-2" x1="20.65" y1="9.43" x2="14.51" y2="11.07"/>
    </g>
  </g>
  <path class="cls-3" d="M25,22.77H0c.04-.2,.67-3.14,.94-4.42,.02-.12,.06-.15,.18-.15,.66,0,8.96,0,8.96,0,.07,.19,.12,.37,.21,.52,.16,.26,.4,.39,.69,.39,1.01,0,2.02,0,3.03,0,.44,0,.79-.34,.85-.79,0-.03,0-.07,.02-.12,0,0,8.41,0,9.06,0,.09,0,.09,.04,.11,.11,.24,1.1,.86,4,.93,4.34,0,.03,.01,.06,.02,.11Z"/>
  <path class="cls-3" d="M24.99,23.25c0,.19,.02,.37,0,.55-.03,.21-.21,.35-.43,.35-.82,0-21.44,0-24.03,0-.37,0-.52-.16-.52-.56,0-.11,0-.22,0-.34H24.99Z"/>
  <g>
    <path class="cls-1" d="M16.06,22.07c-.07,0-.14,0-.21,0-.12,0-.19-.1-.19-.23,0-.12,.07-.22,.19-.23,.14,0,.28,0,.42,0,.11,0,.19,.11,.19,.23,0,.12-.08,.21-.19,.22-.07,0-.14,0-.21,0,0,0,0,0,0,0Z"/>
    <path class="cls-1" d="M14.86,22.07c-.07,0-.13,0-.2,0-.11-.01-.19-.11-.19-.23,0-.12,.08-.22,.19-.22,.14,0,.29,0,.43,0,.11,0,.19,.11,.19,.22,0,.12-.08,.22-.19,.23,0,0-.01,0-.02,0-.07,0-.13,0-.2,0,0,0,0,0,0,0Z"/>
    <path class="cls-1" d="M10.12,22.07c-.07,0-.13,0-.2,0-.12-.01-.2-.11-.19-.24,0-.12,.08-.21,.2-.22,.13,0,.26,0,.38,0,.13,0,.21,.1,.21,.23,0,.13-.08,.21-.21,.22-.07,0-.13,0-.2,0,0,0,0,0,0,0Z"/>
    <path class="cls-1" d="M13.69,21.62c.06,0,.12,0,.19,0,.13,0,.21,.09,.21,.22,0,.13-.08,.22-.2,.23-.13,0-.26,0-.4,0-.12,0-.2-.11-.2-.24,0-.12,.08-.21,.2-.22,.07,0,.13,0,.2,0h0Z"/>
    <path class="cls-1" d="M11.3,22.07c-.07,0-.13,0-.2,0-.11-.01-.19-.11-.19-.23,0-.12,.08-.21,.19-.22,.14,0,.28,0,.42,0,.12,0,.19,.1,.2,.23,0,.12-.08,.22-.19,.23-.07,0-.15,0-.22,0h0Z"/>
    <path class="cls-1" d="M8.95,21.62c.07,0,.13,0,.2,0,.11,0,.19,.11,.19,.23,0,.11-.08,.22-.19,.22-.14,0-.29,0-.43,0-.11,0-.18-.11-.18-.22,0-.13,.08-.22,.19-.23,.07,0,.15,0,.22,0Z"/>
    <path class="cls-1" d="M12.49,22.07c-.07,0-.14,0-.21,0-.11-.01-.18-.1-.18-.23,0-.12,.07-.22,.18-.22,.14,0,.29,0,.43,0,.11,0,.18,.11,.18,.23,0,.12-.08,.21-.19,.23-.07,0-.15,0-.22,0h0Z"/>
    <path class="cls-1" d="M14.17,20.24c-.07,0-.13,0-.2,0-.12,0-.2-.1-.2-.22,0-.13,.08-.23,.2-.23,.13,0,.27,0,.41,0,.11,0,.19,.11,.19,.23,0,.12-.08,.22-.2,.23-.07,0-.14,0-.21,0Z"/>
    <path class="cls-1" d="M16.05,21.16c-.07,0-.13,0-.2,0-.11,0-.19-.1-.19-.23,0-.12,.08-.22,.19-.23,.14,0,.27,0,.41,0,.12,0,.2,.11,.2,.23,0,.12-.08,.21-.2,.22-.07,0-.14,0-.21,0Z"/>
    <path class="cls-1" d="M11.79,20.24c-.07,0-.13,0-.2,0-.12,0-.2-.1-.2-.23,0-.13,.08-.22,.2-.22,.14,0,.27,0,.41,0,.11,0,.2,.1,.2,.22,0,.13-.08,.22-.2,.23-.07,0-.13,0-.2,0Z"/>
    <path class="cls-1" d="M15.36,20.24c-.07,0-.14,0-.21,0-.11,0-.18-.1-.18-.22,0-.12,.07-.22,.18-.23,.15,0,.29,0,.44,0,.11,0,.18,.11,.18,.23,0,.12-.08,.21-.19,.22-.07,0-.15,0-.22,0,0,0,0,0,0,0Z"/>
    <path class="cls-1" d="M14.86,21.16c-.07,0-.13,0-.2,0-.11,0-.19-.11-.19-.22,0-.11,.07-.23,.18-.23,.15-.01,.3-.01,.45,0,.1,0,.18,.12,.17,.23,0,.11-.08,.2-.18,.21-.08,0-.15,0-.23,0,0,0,0,0,0,0Z"/>
    <path class="cls-1" d="M10.13,21.16c-.07,0-.13,0-.2,0-.12,0-.2-.1-.2-.22,0-.13,.07-.23,.19-.23,.14,0,.29,0,.43,0,.11,0,.19,.11,.18,.24,0,.12-.08,.21-.19,.21-.07,0-.14,0-.21,0h0Z"/>
    <path class="cls-1" d="M10.6,20.24c-.07,0-.13,0-.2,0-.11,0-.2-.1-.2-.22,0-.12,.07-.23,.19-.23,.14,0,.29,0,.43,0,.11,0,.18,.11,.18,.23,0,.12-.08,.22-.18,.23-.07,0-.15,0-.22,0,0,0,0,0,0,0Z"/>
    <path class="cls-1" d="M11.31,21.16c-.07,0-.14,0-.21,0-.11,0-.19-.1-.19-.22,0-.11,.06-.22,.16-.23,.16-.01,.31-.01,.47,0,.09,0,.16,.11,.16,.22,0,.11-.07,.21-.17,.22-.08,0-.15,0-.23,0h0Z"/>
    <path class="cls-1" d="M13.69,21.16c-.07,0-.15,0-.22,0-.1,0-.18-.1-.18-.21,0-.12,.07-.23,.18-.23,.15,0,.29,0,.44,0,.11,0,.18,.11,.18,.23,0,.12-.07,.21-.18,.22-.07,0-.14,0-.21,0,0,0,0,0,0,0Z"/>
    <path class="cls-1" d="M9.4,20.24c-.07,0-.14,0-.21,0-.11-.01-.19-.11-.19-.23,0-.12,.08-.21,.19-.22,.14,0,.28,0,.42,0,.11,0,.19,.11,.19,.23,0,.12-.08,.22-.2,.23-.07,0-.14,0-.21,0,0,0,0,0,0,0Z"/>
    <path class="cls-1" d="M8.21,20.24c-.07,0-.13,0-.2,0-.12,0-.2-.1-.2-.23,0-.13,.08-.22,.2-.22,.14,0,.27,0,.41,0,.11,0,.2,.1,.2,.22,0,.13-.08,.22-.2,.23-.07,0-.13,0-.2,0Z"/>
    <path class="cls-1" d="M7.02,20.24c-.07,0-.13,0-.2,0-.11,0-.2-.1-.2-.22,0-.12,.07-.23,.19-.23,.14,0,.29,0,.43,0,.11,0,.18,.11,.18,.23,0,.12-.08,.22-.18,.23-.07,0-.15,0-.22,0,0,0,0,0,0,0Z"/>
    <path class="cls-1" d="M5.82,20.24c-.07,0-.14,0-.21,0-.11-.01-.19-.11-.19-.23,0-.12,.08-.21,.19-.22,.14,0,.28,0,.42,0,.11,0,.19,.11,.19,.23,0,.12-.08,.22-.2,.23-.07,0-.14,0-.21,0,0,0,0,0,0,0Z"/>
    <path class="cls-1" d="M8.94,21.16c-.07,0-.14,0-.21,0-.11,0-.18-.1-.19-.22,0-.12,.07-.22,.18-.23,.15-.01,.29,0,.44,0,.11,0,.18,.11,.18,.22,0,.12-.08,.22-.19,.23-.07,0-.14,0-.21,0,0,0,0,0,0,0Z"/>
    <path class="cls-1" d="M12.98,20.24c-.07,0-.14,0-.21,0-.11,0-.18-.11-.18-.23,0-.12,.08-.22,.18-.22,.14,0,.29,0,.43,0,.11,0,.18,.11,.18,.23,0,.12-.08,.22-.18,.22-.07,0-.15,0-.22,0Z"/>
    <path class="cls-1" d="M17.75,20.24c-.07,0-.13,0-.2,0-.12,0-.2-.1-.2-.22,0-.13,.08-.23,.2-.23,.13,0,.27,0,.41,0,.11,0,.19,.11,.19,.23,0,.12-.08,.22-.2,.23-.07,0-.14,0-.21,0Z"/>
    <path class="cls-1" d="M18.94,20.24c-.07,0-.14,0-.21,0-.11,0-.18-.1-.18-.22,0-.12,.07-.22,.18-.23,.15,0,.29,0,.44,0,.11,0,.18,.11,.18,.23,0,.12-.08,.21-.19,.22-.07,0-.15,0-.22,0,0,0,0,0,0,0Z"/>
    <path class="cls-1" d="M16.56,20.24c-.07,0-.14,0-.21,0-.11,0-.18-.11-.18-.23,0-.12,.08-.22,.18-.22,.14,0,.29,0,.43,0,.11,0,.18,.11,.18,.23,0,.12-.08,.22-.18,.22-.07,0-.15,0-.22,0Z"/>
    <path class="cls-1" d="M12.5,21.16c-.07,0-.14,0-.21,0-.11,0-.19-.1-.19-.22,0-.12,.07-.23,.19-.24,.14,0,.29,0,.43,0,.11,0,.18,.12,.18,.23,0,.12-.08,.22-.2,.22-.07,0-.13,0-.2,0,0,0,0,0,0,0Z"/>
    <path class="cls-1" d="M5.38,22.07c-.07,0-.13,0-.2,0-.12-.01-.2-.11-.19-.24,0-.12,.08-.21,.2-.22,.13,0,.26,0,.38,0,.13,0,.21,.1,.21,.23,0,.13-.08,.21-.21,.22-.07,0-.13,0-.2,0,0,0,0,0,0,0Z"/>
    <path class="cls-1" d="M6.56,22.07c-.07,0-.13,0-.2,0-.11-.01-.19-.11-.19-.23,0-.12,.08-.21,.19-.22,.14,0,.28,0,.42,0,.12,0,.19,.1,.2,.23,0,.12-.08,.22-.19,.23-.07,0-.15,0-.22,0h0Z"/>
    <path class="cls-1" d="M4.21,21.62c.07,0,.13,0,.2,0,.11,0,.19,.11,.19,.23,0,.11-.08,.22-.19,.22-.14,0-.29,0-.43,0-.11,0-.18-.11-.18-.22,0-.13,.08-.22,.19-.23,.07,0,.15,0,.22,0Z"/>
    <path class="cls-1" d="M7.75,22.07c-.07,0-.14,0-.21,0-.11-.01-.18-.1-.18-.23,0-.12,.07-.22,.18-.22,.14,0,.29,0,.43,0,.11,0,.18,.11,.18,.23,0,.12-.08,.21-.19,.23-.07,0-.15,0-.22,0h0Z"/>
    <path class="cls-1" d="M5.38,21.16c-.07,0-.13,0-.2,0-.12,0-.2-.1-.2-.22,0-.13,.07-.23,.19-.23,.14,0,.29,0,.43,0,.11,0,.19,.11,.18,.24,0,.12-.08,.21-.19,.21-.07,0-.14,0-.21,0h0Z"/>
    <path class="cls-1" d="M6.57,21.16c-.07,0-.14,0-.21,0-.11,0-.19-.1-.19-.22,0-.11,.06-.22,.16-.23,.16-.01,.31-.01,.47,0,.09,0,.16,.11,.16,.22,0,.11-.07,.21-.17,.22-.08,0-.15,0-.23,0h0Z"/>
    <path class="cls-1" d="M4.19,21.16c-.07,0-.14,0-.21,0-.11,0-.18-.1-.19-.22,0-.12,.07-.22,.18-.23,.15-.01,.29,0,.44,0,.11,0,.18,.11,.18,.22,0,.12-.08,.22-.19,.23-.07,0-.14,0-.21,0,0,0,0,0,0,0Z"/>
    <path class="cls-1" d="M7.76,21.16c-.07,0-.14,0-.21,0-.11,0-.19-.1-.19-.22,0-.12,.07-.23,.19-.24,.14,0,.29,0,.43,0,.11,0,.18,.12,.18,.23,0,.12-.08,.22-.2,.22-.07,0-.13,0-.2,0,0,0,0,0,0,0Z"/>
    <path class="cls-1" d="M20.81,22.07c-.07,0-.14,0-.21,0-.12,0-.19-.1-.19-.23,0-.12,.07-.22,.19-.23,.14,0,.28,0,.42,0,.11,0,.19,.11,.19,.23,0,.12-.08,.21-.19,.22-.07,0-.14,0-.21,0,0,0,0,0,0,0Z"/>
    <path class="cls-1" d="M19.61,22.07c-.07,0-.13,0-.2,0-.11-.01-.19-.11-.19-.23,0-.12,.08-.22,.19-.22,.14,0,.29,0,.43,0,.11,0,.19,.11,.19,.22,0,.12-.08,.22-.19,.23,0,0-.01,0-.02,0-.07,0-.13,0-.2,0,0,0,0,0,0,0Z"/>
    <path class="cls-1" d="M18.43,21.62c.06,0,.12,0,.19,0,.13,0,.21,.09,.21,.22,0,.13-.08,.22-.2,.23-.13,0-.26,0-.4,0-.12,0-.2-.11-.2-.24,0-.12,.08-.21,.2-.22,.07,0,.13,0,.2,0h0Z"/>
    <path class="cls-1" d="M17.24,22.07c-.07,0-.14,0-.21,0-.11-.01-.18-.1-.18-.23,0-.12,.07-.22,.18-.22,.14,0,.29,0,.43,0,.11,0,.18,.11,.18,.23,0,.12-.08,.21-.19,.23-.07,0-.15,0-.22,0h0Z"/>
    <path class="cls-1" d="M20.8,21.16c-.07,0-.13,0-.2,0-.11,0-.19-.1-.19-.23,0-.12,.08-.22,.19-.23,.14,0,.27,0,.41,0,.12,0,.2,.11,.2,.23,0,.12-.08,.21-.2,.22-.07,0-.14,0-.21,0Z"/>
    <path class="cls-1" d="M19.61,21.16c-.07,0-.13,0-.2,0-.11,0-.19-.11-.19-.22,0-.11,.07-.23,.18-.23,.15-.01,.3-.01,.45,0,.1,0,.18,.12,.17,.23,0,.11-.08,.2-.18,.21-.08,0-.15,0-.23,0,0,0,0,0,0,0Z"/>
    <path class="cls-1" d="M18.44,21.16c-.07,0-.15,0-.22,0-.1,0-.18-.1-.18-.21,0-.12,.07-.23,.18-.23,.15,0,.29,0,.44,0,.11,0,.18,.11,.18,.23,0,.12-.07,.21-.18,.22-.07,0-.14,0-.21,0,0,0,0,0,0,0Z"/>
    <path class="cls-1" d="M17.25,21.16c-.07,0-.14,0-.21,0-.11,0-.19-.1-.19-.22,0-.12,.07-.23,.19-.24,.14,0,.29,0,.43,0,.11,0,.18,.12,.18,.23,0,.12-.08,.22-.2,.22-.07,0-.13,0-.2,0,0,0,0,0,0,0Z"/>
  </g>
  <g>
    <path class="cls-4" d="M16.06,21.82c-.07,0-.14,0-.21,0-.12,0-.19-.1-.19-.23,0-.12,.07-.22,.19-.23,.14,0,.28,0,.42,0,.11,0,.19,.11,.19,.23,0,.12-.08,.21-.19,.22-.07,0-.14,0-.21,0,0,0,0,0,0,0Z"/>
    <path class="cls-4" d="M14.86,21.82c-.07,0-.13,0-.2,0-.11-.01-.19-.11-.19-.23,0-.12,.08-.22,.19-.22,.14,0,.29,0,.43,0,.11,0,.19,.11,.19,.22,0,.12-.08,.22-.19,.23,0,0-.01,0-.02,0-.07,0-.13,0-.2,0,0,0,0,0,0,0Z"/>
    <path class="cls-4" d="M10.12,21.82c-.07,0-.13,0-.2,0-.12-.01-.2-.11-.19-.24,0-.12,.08-.21,.2-.22,.13,0,.26,0,.38,0,.13,0,.21,.1,.21,.23,0,.13-.08,.21-.21,.22-.07,0-.13,0-.2,0,0,0,0,0,0,0Z"/>
    <path class="cls-4" d="M13.69,21.37c.06,0,.12,0,.19,0,.13,0,.21,.09,.21,.22,0,.13-.08,.22-.2,.23-.13,0-.26,0-.4,0-.12,0-.2-.11-.2-.24,0-.12,.08-.21,.2-.22,.07,0,.13,0,.2,0h0Z"/>
    <path class="cls-4" d="M11.3,21.82c-.07,0-.13,0-.2,0-.11-.01-.19-.11-.19-.23,0-.12,.08-.21,.19-.22,.14,0,.28,0,.42,0,.12,0,.19,.1,.2,.23,0,.12-.08,.22-.19,.23-.07,0-.15,0-.22,0h0Z"/>
    <path class="cls-4" d="M8.95,21.37c.07,0,.13,0,.2,0,.11,0,.19,.11,.19,.23,0,.11-.08,.22-.19,.22-.14,0-.29,0-.43,0-.11,0-.18-.11-.18-.22,0-.13,.08-.22,.19-.23,.07,0,.15,0,.22,0Z"/>
    <path class="cls-4" d="M12.49,21.82c-.07,0-.14,0-.21,0-.11-.01-.18-.1-.18-.23,0-.12,.07-.22,.18-.22,.14,0,.29,0,.43,0,.11,0,.18,.11,.18,.23,0,.12-.08,.21-.19,.23-.07,0-.15,0-.22,0h0Z"/>
    <path class="cls-4" d="M14.17,20c-.07,0-.13,0-.2,0-.12,0-.2-.1-.2-.22,0-.13,.08-.23,.2-.23,.13,0,.27,0,.41,0,.11,0,.19,.11,.19,.23,0,.12-.08,.22-.2,.23-.07,0-.14,0-.21,0Z"/>
    <path class="cls-4" d="M16.05,20.91c-.07,0-.13,0-.2,0-.11,0-.19-.1-.19-.23,0-.12,.08-.22,.19-.23,.14,0,.27,0,.41,0,.12,0,.2,.11,.2,.23,0,.12-.08,.21-.2,.22-.07,0-.14,0-.21,0Z"/>
    <path class="cls-4" d="M11.79,20c-.07,0-.13,0-.2,0-.12,0-.2-.1-.2-.23,0-.13,.08-.22,.2-.22,.14,0,.27,0,.41,0,.11,0,.2,.1,.2,.22,0,.13-.08,.22-.2,.23-.07,0-.13,0-.2,0Z"/>
    <path class="cls-4" d="M15.36,20c-.07,0-.14,0-.21,0-.11,0-.18-.1-.18-.22,0-.12,.07-.22,.18-.23,.15,0,.29,0,.44,0,.11,0,.18,.11,.18,.23,0,.12-.08,.21-.19,.22-.07,0-.15,0-.22,0,0,0,0,0,0,0Z"/>
    <path class="cls-4" d="M14.86,20.91c-.07,0-.13,0-.2,0-.11,0-.19-.11-.19-.22,0-.11,.07-.23,.18-.23,.15-.01,.3-.01,.45,0,.1,0,.18,.12,.17,.23,0,.11-.08,.2-.18,.21-.08,0-.15,0-.23,0,0,0,0,0,0,0Z"/>
    <path class="cls-4" d="M10.13,20.91c-.07,0-.13,0-.2,0-.12,0-.2-.1-.2-.22,0-.13,.07-.23,.19-.23,.14,0,.29,0,.43,0,.11,0,.19,.11,.18,.24,0,.12-.08,.21-.19,.21-.07,0-.14,0-.21,0h0Z"/>
    <path class="cls-4" d="M10.6,20c-.07,0-.13,0-.2,0-.11,0-.2-.1-.2-.22,0-.12,.07-.23,.19-.23,.14,0,.29,0,.43,0,.11,0,.18,.11,.18,.23,0,.12-.08,.22-.18,.23-.07,0-.15,0-.22,0,0,0,0,0,0,0Z"/>
    <path class="cls-4" d="M11.31,20.91c-.07,0-.14,0-.21,0-.11,0-.19-.1-.19-.22,0-.11,.06-.22,.16-.23,.16-.01,.31-.01,.47,0,.09,0,.16,.11,.16,.22,0,.11-.07,.21-.17,.22-.08,0-.15,0-.23,0h0Z"/>
    <path class="cls-4" d="M13.69,20.91c-.07,0-.15,0-.22,0-.1,0-.18-.1-.18-.21,0-.12,.07-.23,.18-.23,.15,0,.29,0,.44,0,.11,0,.18,.11,.18,.23,0,.12-.07,.21-.18,.22-.07,0-.14,0-.21,0,0,0,0,0,0,0Z"/>
    <path class="cls-4" d="M9.4,20c-.07,0-.14,0-.21,0-.11-.01-.19-.11-.19-.23,0-.12,.08-.21,.19-.22,.14,0,.28,0,.42,0,.11,0,.19,.11,.19,.23,0,.12-.08,.22-.2,.23-.07,0-.14,0-.21,0,0,0,0,0,0,0Z"/>
    <path class="cls-4" d="M8.21,20c-.07,0-.13,0-.2,0-.12,0-.2-.1-.2-.23,0-.13,.08-.22,.2-.22,.14,0,.27,0,.41,0,.11,0,.2,.1,.2,.22,0,.13-.08,.22-.2,.23-.07,0-.13,0-.2,0Z"/>
    <path class="cls-4" d="M7.02,20c-.07,0-.13,0-.2,0-.11,0-.2-.1-.2-.22,0-.12,.07-.23,.19-.23,.14,0,.29,0,.43,0,.11,0,.18,.11,.18,.23,0,.12-.08,.22-.18,.23-.07,0-.15,0-.22,0,0,0,0,0,0,0Z"/>
    <path class="cls-4" d="M5.82,20c-.07,0-.14,0-.21,0-.11-.01-.19-.11-.19-.23,0-.12,.08-.21,.19-.22,.14,0,.28,0,.42,0,.11,0,.19,.11,.19,.23,0,.12-.08,.22-.2,.23-.07,0-.14,0-.21,0,0,0,0,0,0,0Z"/>
    <path class="cls-4" d="M8.94,20.91c-.07,0-.14,0-.21,0-.11,0-.18-.1-.19-.22,0-.12,.07-.22,.18-.23,.15-.01,.29,0,.44,0,.11,0,.18,.11,.18,.22,0,.12-.08,.22-.19,.23-.07,0-.14,0-.21,0,0,0,0,0,0,0Z"/>
    <path class="cls-4" d="M12.98,20c-.07,0-.14,0-.21,0-.11,0-.18-.11-.18-.23,0-.12,.08-.22,.18-.22,.14,0,.29,0,.43,0,.11,0,.18,.11,.18,.23,0,.12-.08,.22-.18,.22-.07,0-.15,0-.22,0Z"/>
    <path class="cls-4" d="M17.75,20c-.07,0-.13,0-.2,0-.12,0-.2-.1-.2-.22,0-.13,.08-.23,.2-.23,.13,0,.27,0,.41,0,.11,0,.19,.11,.19,.23,0,.12-.08,.22-.2,.23-.07,0-.14,0-.21,0Z"/>
    <path class="cls-4" d="M18.94,20c-.07,0-.14,0-.21,0-.11,0-.18-.1-.18-.22,0-.12,.07-.22,.18-.23,.15,0,.29,0,.44,0,.11,0,.18,.11,.18,.23,0,.12-.08,.21-.19,.22-.07,0-.15,0-.22,0,0,0,0,0,0,0Z"/>
    <path class="cls-4" d="M16.56,20c-.07,0-.14,0-.21,0-.11,0-.18-.11-.18-.23,0-.12,.08-.22,.18-.22,.14,0,.29,0,.43,0,.11,0,.18,.11,.18,.23,0,.12-.08,.22-.18,.22-.07,0-.15,0-.22,0Z"/>
    <path class="cls-4" d="M12.5,20.91c-.07,0-.14,0-.21,0-.11,0-.19-.1-.19-.22,0-.12,.07-.23,.19-.24,.14,0,.29,0,.43,0,.11,0,.18,.12,.18,.23,0,.12-.08,.22-.2,.22-.07,0-.13,0-.2,0,0,0,0,0,0,0Z"/>
    <path class="cls-4" d="M5.38,21.82c-.07,0-.13,0-.2,0-.12-.01-.2-.11-.19-.24,0-.12,.08-.21,.2-.22,.13,0,.26,0,.38,0,.13,0,.21,.1,.21,.23,0,.13-.08,.21-.21,.22-.07,0-.13,0-.2,0,0,0,0,0,0,0Z"/>
    <path class="cls-4" d="M6.56,21.82c-.07,0-.13,0-.2,0-.11-.01-.19-.11-.19-.23,0-.12,.08-.21,.19-.22,.14,0,.28,0,.42,0,.12,0,.19,.1,.2,.23,0,.12-.08,.22-.19,.23-.07,0-.15,0-.22,0h0Z"/>
    <path class="cls-4" d="M4.21,21.37c.07,0,.13,0,.2,0,.11,0,.19,.11,.19,.23,0,.11-.08,.22-.19,.22-.14,0-.29,0-.43,0-.11,0-.18-.11-.18-.22,0-.13,.08-.22,.19-.23,.07,0,.15,0,.22,0Z"/>
    <path class="cls-4" d="M7.75,21.82c-.07,0-.14,0-.21,0-.11-.01-.18-.1-.18-.23,0-.12,.07-.22,.18-.22,.14,0,.29,0,.43,0,.11,0,.18,.11,.18,.23,0,.12-.08,.21-.19,.23-.07,0-.15,0-.22,0h0Z"/>
    <path class="cls-4" d="M5.38,20.91c-.07,0-.13,0-.2,0-.12,0-.2-.1-.2-.22,0-.13,.07-.23,.19-.23,.14,0,.29,0,.43,0,.11,0,.19,.11,.18,.24,0,.12-.08,.21-.19,.21-.07,0-.14,0-.21,0h0Z"/>
    <path class="cls-4" d="M6.57,20.91c-.07,0-.14,0-.21,0-.11,0-.19-.1-.19-.22,0-.11,.06-.22,.16-.23,.16-.01,.31-.01,.47,0,.09,0,.16,.11,.16,.22,0,.11-.07,.21-.17,.22-.08,0-.15,0-.23,0h0Z"/>
    <path class="cls-4" d="M4.19,20.91c-.07,0-.14,0-.21,0-.11,0-.18-.1-.19-.22,0-.12,.07-.22,.18-.23,.15-.01,.29,0,.44,0,.11,0,.18,.11,.18,.22,0,.12-.08,.22-.19,.23-.07,0-.14,0-.21,0,0,0,0,0,0,0Z"/>
    <path class="cls-4" d="M7.76,20.91c-.07,0-.14,0-.21,0-.11,0-.19-.1-.19-.22,0-.12,.07-.23,.19-.24,.14,0,.29,0,.43,0,.11,0,.18,.12,.18,.23,0,.12-.08,.22-.2,.22-.07,0-.13,0-.2,0,0,0,0,0,0,0Z"/>
    <path class="cls-4" d="M20.81,21.82c-.07,0-.14,0-.21,0-.12,0-.19-.1-.19-.23,0-.12,.07-.22,.19-.23,.14,0,.28,0,.42,0,.11,0,.19,.11,.19,.23,0,.12-.08,.21-.19,.22-.07,0-.14,0-.21,0,0,0,0,0,0,0Z"/>
    <path class="cls-4" d="M19.61,21.82c-.07,0-.13,0-.2,0-.11-.01-.19-.11-.19-.23,0-.12,.08-.22,.19-.22,.14,0,.29,0,.43,0,.11,0,.19,.11,.19,.22,0,.12-.08,.22-.19,.23,0,0-.01,0-.02,0-.07,0-.13,0-.2,0,0,0,0,0,0,0Z"/>
    <path class="cls-4" d="M18.43,21.37c.06,0,.12,0,.19,0,.13,0,.21,.09,.21,.22,0,.13-.08,.22-.2,.23-.13,0-.26,0-.4,0-.12,0-.2-.11-.2-.24,0-.12,.08-.21,.2-.22,.07,0,.13,0,.2,0h0Z"/>
    <path class="cls-4" d="M17.24,21.82c-.07,0-.14,0-.21,0-.11-.01-.18-.1-.18-.23,0-.12,.07-.22,.18-.22,.14,0,.29,0,.43,0,.11,0,.18,.11,.18,.23,0,.12-.08,.21-.19,.23-.07,0-.15,0-.22,0h0Z"/>
    <path class="cls-4" d="M20.8,20.91c-.07,0-.13,0-.2,0-.11,0-.19-.1-.19-.23,0-.12,.08-.22,.19-.23,.14,0,.27,0,.41,0,.12,0,.2,.11,.2,.23,0,.12-.08,.21-.2,.22-.07,0-.14,0-.21,0Z"/>
    <path class="cls-4" d="M19.61,20.91c-.07,0-.13,0-.2,0-.11,0-.19-.11-.19-.22,0-.11,.07-.23,.18-.23,.15-.01,.3-.01,.45,0,.1,0,.18,.12,.17,.23,0,.11-.08,.2-.18,.21-.08,0-.15,0-.23,0,0,0,0,0,0,0Z"/>
    <path class="cls-4" d="M18.44,20.91c-.07,0-.15,0-.22,0-.1,0-.18-.1-.18-.21,0-.12,.07-.23,.18-.23,.15,0,.29,0,.44,0,.11,0,.18,.11,.18,.23,0,.12-.07,.21-.18,.22-.07,0-.14,0-.21,0,0,0,0,0,0,0Z"/>
    <path class="cls-4" d="M17.25,20.91c-.07,0-.14,0-.21,0-.11,0-.19-.1-.19-.22,0-.12,.07-.23,.19-.24,.14,0,.29,0,.43,0,.11,0,.18,.12,.18,.23,0,.12-.08,.22-.2,.22-.07,0-.13,0-.2,0,0,0,0,0,0,0Z"/>
  </g>
</svg>